<?xml version="1.0" encoding="utf-8"?>
<!-- Generator: Adobe Illustrator 15.1.0, SVG Export Plug-In . SVG Version: 6.00 Build 0)  -->
<!DOCTYPE svg PUBLIC "-//W3C//DTD SVG 1.1//EN" "http://www.w3.org/Graphics/SVG/1.1/DTD/svg11.dtd">
<svg version="1.1" id="Layer_1" xmlns="http://www.w3.org/2000/svg" xmlns:xlink="http://www.w3.org/1999/xlink" x="0px" y="0px"
	 width="539.946px" height="792px" viewBox="72.054 0 539.946 792" enable-background="new 72.054 0 539.946 792"
	 xml:space="preserve">
<polygon fill="#CC2430" points="443.56,536.169 244.376,518.742 275.875,234.429 465.198,250.993 "/>
<polygon fill="#CC2430" points="553.861,360.26 573.024,389.443 450.138,469.209 437.506,439.215 "/>
<g>
	<defs>
		<rect id="SVGID_1_" x="74.061" y="1.662" width="537.938" height="789.338"/>
	</defs>
	<clipPath id="SVGID_2_">
		<use xlink:href="#SVGID_1_"  overflow="visible"/>
	</clipPath>
	<path clip-path="url(#SVGID_2_)" fill="#96A59C" d="M345.419,28.02c-3.095,4-5.445,8.348-6.868,12.59
		c-1.913,5.69-1.834,10.578,0.195,12.456c3.503,3.238,8.06,1.766,10.903-0.48c3.427-2.707,6.247-7.958,2.926-13.854l-0.459-0.819
		C350.528,35.071,348.463,31.372,345.419,28.02 M404.491,24.65c-3.186,3.124-6.287,7.158-9.231,12.045
		c-3.701,6.146-4.314,11.245-1.564,12.991c3.05,1.943,10.058,0.498,14.548-6.226c2.003-2.998,1.838-9.682-2.346-16.666
		C405.455,26.054,404.986,25.341,404.491,24.65 M288.568,40.475c-3.816,5.941-6.063,12.097-6.642,16.926
		c-0.485,4.055,0.199,7.198,1.74,8.004c4.451,2.332,10.271-0.245,13.323-4.075c1.983-2.484,4.538-7.549-0.594-13.581
		C293.857,44.769,291.235,42.34,288.568,40.475 M263.209,146.246c-0.75-2.59-18.388-63.662-20.012-82.237
		c-1.313-14.998,7.571-30.002,21.125-35.671c7.02-2.932,14.324-3.021,21.389-0.43c6.633-7.604,15.63-14.045,26.917-16.847
		c14.232-3.552,24.524-1.022,31.929,3.556c7.433-6.709,16.848-11.651,27.409-12.689c12.887-1.293,24.766,2.181,33.542,9.457
		c8.117-4.871,15.323-4.857,19.972-3.965c12.439,2.385,22.741,13.867,25.055,27.918c4.457,27.049,5.215,77.099,5.246,79.216
		l-9.861,0.142c-0.008-0.512-0.777-51.435-5.111-77.752c-1.633-9.9-8.856-18.243-17.186-19.84
		c-3.682-0.705-7.444-0.106-11.174,1.719c0.673,0.933,1.311,1.902,1.912,2.906c5.82,9.715,6.638,20.395,2.084,27.208
		c-7.786,11.654-20.613,13.787-28.032,9.078c-6.12-3.885-9.755-12.864-1.597-26.403c3.547-5.892,7.148-10.437,10.684-13.92
		c-6.607-4.707-15.213-7.013-24.571-5.948c-7.869,0.773-14.957,4.295-20.722,9.176c4.211,4.471,6.862,9.222,8.519,12.185
		l0.443,0.789c5.934,10.537,1.361,21.086-5.403,26.431c-7.516,5.942-17.269,5.938-23.709-0.014
		c-5.106-4.719-6.146-13.043-2.854-22.837c1.75-5.202,4.647-10.537,8.472-15.447c-5.442-2.746-12.722-3.861-22.666-1.396
		c-8.272,2.053-15.082,6.611-20.337,12.096c3.203,2.3,6.299,5.185,9.234,8.632c8.237,9.679,5.808,19.843,0.793,26.122
		c-6.439,8.062-17.445,10.922-25.597,6.665c-5.445-2.85-7.985-9.377-6.962-17.912c0.693-5.806,3.171-12.939,7.388-19.87
		c-3.846-0.822-7.682-0.484-11.397,1.073c-9.546,3.992-16.042,15.047-15.109,25.716c1.542,17.624,19.48,79.726,19.66,80.352
		L263.209,146.246z"/>
</g>
<rect x="245.648" y="139.294" transform="matrix(-0.9862 0.1655 -0.1655 -0.9862 570.5008 253.2013)" width="58.11" height="22.142"/>
<polygon points="416.056,137.597 473.359,127.981 469.701,106.148 412.393,115.759 "/>
<polygon fill="#CC2430" points="565.52,345.7 544.223,373.374 439.857,284.442 469.371,242.467 "/>
<polygon fill="#CC2430" points="94.564,283.25 104.969,249.912 259.968,233.898 260.538,281.902 "/>
<polygon fill="#CC2430" points="118.67,269.62 84.213,264.002 100.04,96.873 134.5,102.471 "/>
<g>
	<defs>
		<rect id="SVGID_3_" x="72.054" y="-1.283" width="539.944" height="792.283"/>
	</defs>
	<clipPath id="SVGID_4_">
		<use xlink:href="#SVGID_3_"  overflow="visible"/>
	</clipPath>
	<path clip-path="url(#SVGID_4_)" fill="#CC2430" d="M512.328,740.871l-61.8-223.643l-34.657,4.374L483.058,791
		c0,0,59.444-7.298,99.012-12.157c39.567-4.858,42.481-61.723-6.836-55.667C525.919,729.231,512.328,740.871,512.328,740.871"/>
	<path clip-path="url(#SVGID_4_)" fill="#CC2430" d="M278.927,718.038l-33.531-196.337l34.685-4.138l39.372,242.033
		c0,0-59.442,7.3-99.01,12.155c-39.565,4.86-56.151-49.609-6.834-55.668C262.925,710.031,278.927,718.038,278.927,718.038"/>
	<path clip-path="url(#SVGID_4_)" d="M337.806,140.669c0.124,5.067-3.884,9.272-8.947,9.399c-5.069,0.126-9.283-3.884-9.402-8.951
		c-0.12-5.067,3.886-9.272,8.949-9.398C333.475,131.592,337.683,135.6,337.806,140.669"/>
	<path clip-path="url(#SVGID_4_)" fill="#CC2430" d="M386.182,145.784c-7.215,0.178-13.207-5.53-13.383-12.745
		c-0.177-7.213,5.532-13.208,12.747-13.382c7.216-0.178,13.206,5.526,13.382,12.743
		C399.104,139.614,393.395,145.605,386.182,145.784 M328.951,153.721c-7.215,0.179-13.207-5.526-13.382-12.75
		c-0.176-7.213,5.53-13.204,12.745-13.382c7.216-0.173,13.206,5.53,13.383,12.745C341.873,147.552,336.167,153.543,328.951,153.721
		 M411.761,63.922L290.008,80.208l22.687,148.634l118.463-15.998L411.761,63.922z"/>
	<path clip-path="url(#SVGID_4_)" d="M394.763,132.499c0.118,4.917-3.771,8.996-8.682,9.115c-4.909,0.119-8.992-3.764-9.114-8.678
		c-0.121-4.911,3.771-8.991,8.683-9.113C390.56,123.7,394.641,127.585,394.763,132.499"/>
	<path clip-path="url(#SVGID_4_)" fill="#CC2430" d="M380.562,322.878c-0.718,8.174-7.917,14.221-16.096,13.504
		c-8.171-0.713-14.219-7.919-13.505-16.092c0.717-8.173,7.922-14.218,16.094-13.501
		C375.233,307.503,381.275,314.707,380.562,322.878"/>
	<path clip-path="url(#SVGID_4_)" fill="none" stroke="#FFFFFF" stroke-width="1.145" stroke-miterlimit="10" d="M380.562,322.878
		c-0.718,8.174-7.917,14.221-16.096,13.504c-8.171-0.713-14.219-7.919-13.505-16.092c0.717-8.173,7.922-14.218,16.094-13.501
		C375.233,307.503,381.275,314.707,380.562,322.878z"/>
	<path clip-path="url(#SVGID_4_)" fill="#CC2430" d="M375.853,376.677c-0.716,8.174-7.915,14.22-16.093,13.505
		c-8.173-0.715-14.22-7.92-13.505-16.095c0.716-8.171,7.922-14.216,16.095-13.5C370.525,361.303,376.567,368.505,375.853,376.677"/>
	<path clip-path="url(#SVGID_4_)" fill="none" stroke="#FFFFFF" stroke-width="1.145" stroke-miterlimit="10" d="M375.853,376.677
		c-0.716,8.174-7.915,14.22-16.093,13.505c-8.173-0.715-14.22-7.92-13.505-16.095c0.716-8.171,7.922-14.216,16.095-13.5
		C370.525,361.303,376.567,368.505,375.853,376.677z"/>
	<path clip-path="url(#SVGID_4_)" fill="#CC2430" d="M371.147,430.473c-0.716,8.177-7.917,14.223-16.094,13.507
		c-8.173-0.715-14.22-7.92-13.506-16.096c0.716-8.173,7.922-14.218,16.095-13.502C365.82,415.098,371.862,422.3,371.147,430.473"/>
	<path clip-path="url(#SVGID_4_)" fill="none" stroke="#FFFFFF" stroke-width="1.145" stroke-miterlimit="10" d="M371.147,430.473
		c-0.716,8.177-7.917,14.223-16.094,13.507c-8.173-0.715-14.22-7.92-13.506-16.096c0.716-8.173,7.922-14.218,16.095-13.502
		C365.82,415.098,371.862,422.3,371.147,430.473z"/>
	<path clip-path="url(#SVGID_4_)" fill="#CC2430" d="M125.481,114.027c-2.554,0.314-5.152,0.402-7.775,0.256
		c-11.579-0.63-22.226-5.734-29.975-14.379c-7.747-8.642-11.665-19.781-11.03-31.365c0.62-11.259,5.505-21.694,13.755-29.391
		l13.503,14.476c-4.494,4.193-7.157,9.874-7.493,16c-0.345,6.3,1.787,12.363,6.005,17.068c4.217,4.704,10.013,7.482,16.317,7.827
		c6.309,0.339,12.366-1.78,17.072-5.993c4.702-4.213,7.483-10.008,7.83-16.315c0.319-5.801-1.498-11.491-5.116-16.021l15.467-12.352
		c6.653,8.331,9.999,18.791,9.413,29.454c-0.637,11.589-5.745,22.234-14.386,29.974
		C142.383,109.259,134.204,112.957,125.481,114.027"/>
	<path clip-path="url(#SVGID_4_)" fill="none" stroke="#FFFFFF" stroke-width="1.145" stroke-miterlimit="10" d="M125.481,114.027
		c-2.554,0.314-5.152,0.402-7.775,0.256c-11.579-0.63-22.226-5.734-29.975-14.379c-7.747-8.642-11.665-19.781-11.03-31.365
		c0.62-11.259,5.505-21.694,13.755-29.391l13.503,14.476c-4.494,4.193-7.157,9.874-7.493,16c-0.345,6.3,1.787,12.363,6.005,17.068
		c4.217,4.704,10.013,7.482,16.317,7.827c6.309,0.339,12.366-1.78,17.072-5.993c4.702-4.213,7.483-10.008,7.83-16.315
		c0.319-5.801-1.498-11.491-5.116-16.021l15.467-12.352c6.653,8.331,9.999,18.791,9.413,29.454
		c-0.637,11.589-5.745,22.234-14.386,29.974C142.383,109.259,134.204,112.957,125.481,114.027z"/>
	<path clip-path="url(#SVGID_4_)" fill="#CC2430" d="M510.104,272.974c-1.766,20.189-19.565,35.119-39.751,33.352
		c-20.183-1.766-35.12-19.56-33.355-39.748c1.767-20.185,19.566-35.118,39.754-33.353
		C496.934,234.992,511.871,252.791,510.104,272.974"/>
	<path clip-path="url(#SVGID_4_)" fill="none" stroke="#FFFFFF" stroke-width="1.145" stroke-miterlimit="10" d="M510.104,272.974
		c-1.766,20.189-19.565,35.119-39.751,33.352c-20.183-1.766-35.12-19.56-33.355-39.748c1.767-20.185,19.566-35.118,39.754-33.353
		C496.934,234.992,511.871,252.791,510.104,272.974z"/>
	<path clip-path="url(#SVGID_4_)" fill="#CC2430" d="M311.384,255.588c-1.766,20.189-19.567,35.12-39.751,33.353
		c-20.186-1.766-35.123-19.56-33.356-39.748c1.766-20.185,19.567-35.118,39.752-33.353
		C298.213,217.606,313.15,235.405,311.384,255.588"/>
	<path clip-path="url(#SVGID_4_)" fill="none" stroke="#FFFFFF" stroke-width="1.145" stroke-miterlimit="10" d="M311.384,255.588
		c-1.766,20.189-19.567,35.12-39.751,33.353c-20.186-1.766-35.123-19.56-33.356-39.748c1.766-20.185,19.567-35.118,39.752-33.353
		C298.213,217.606,313.15,235.405,311.384,255.588z"/>
	<path clip-path="url(#SVGID_4_)" fill="#CC2430" d="M297.792,506.573c-1.887,21.564-20.912,37.522-42.484,35.636
		c-21.572-1.888-37.534-20.907-35.648-42.472c1.887-21.577,20.909-37.532,42.482-35.646
		C283.715,465.979,299.681,484.993,297.792,506.573"/>
	<path clip-path="url(#SVGID_4_)" fill="none" stroke="#FFFFFF" stroke-width="1.145" stroke-miterlimit="10" d="M297.792,506.573
		c-1.887,21.564-20.912,37.522-42.484,35.636c-21.572-1.888-37.534-20.907-35.648-42.472c1.887-21.577,20.909-37.532,42.482-35.646
		C283.715,465.979,299.681,484.993,297.792,506.573z"/>
	<path clip-path="url(#SVGID_4_)" fill="#CC2430" d="M471.44,521.766c-1.886,21.564-20.911,37.522-42.485,35.635
		c-21.568-1.888-37.53-20.907-35.643-42.471c1.889-21.577,20.907-37.533,42.476-35.646
		C457.363,481.171,473.33,500.187,471.44,521.766"/>
	<path clip-path="url(#SVGID_4_)" fill="none" stroke="#FFFFFF" stroke-width="1.145" stroke-miterlimit="10" d="M471.44,521.766
		c-1.886,21.564-20.911,37.522-42.485,35.635c-21.568-1.888-37.53-20.907-35.643-42.471c1.889-21.577,20.907-37.533,42.476-35.646
		C457.363,481.171,473.33,500.187,471.44,521.766z"/>
	<path clip-path="url(#SVGID_4_)" fill="#CC2430" d="M586.449,365.942c2.07,16.858-9.926,32.209-26.788,34.277
		c-16.861,2.071-32.21-9.921-34.279-26.779c-2.07-16.858,9.92-32.21,26.781-34.283C569.026,337.089,584.379,349.083,586.449,365.942
		"/>
	
		<ellipse transform="matrix(0.9925 -0.1219 0.1219 0.9925 -40.9123 70.5086)" clip-path="url(#SVGID_4_)" fill="none" stroke="#FFFFFF" stroke-width="1.145" stroke-miterlimit="10" cx="555.916" cy="369.692" rx="30.763" ry="30.757"/>
	<path clip-path="url(#SVGID_4_)" fill="#CC2430" d="M78.897,280.328c-10.071-13.676-7.147-32.933,6.533-43.007
		c13.68-10.077,32.937-7.153,43.013,6.521c10.068,13.679,7.146,32.937-6.534,43.014C108.23,296.93,88.965,294.002,78.897,280.328"/>
	<path clip-path="url(#SVGID_4_)" fill="none" stroke="#FFFFFF" stroke-width="1.145" stroke-miterlimit="10" d="M78.897,280.328
		c-10.071-13.676-7.147-32.933,6.533-43.007c13.68-10.077,32.937-7.153,43.013,6.521c10.068,13.679,7.146,32.937-6.534,43.014
		C108.23,296.93,88.965,294.002,78.897,280.328z"/>
	<path clip-path="url(#SVGID_4_)" d="M374.14,321.989c-0.224,4.915-4.39,8.712-9.296,8.488c-4.906-0.224-8.708-4.381-8.487-9.293
		c0.221-4.907,4.39-8.706,9.298-8.485C370.559,312.919,374.359,317.08,374.14,321.989"/>
	<path clip-path="url(#SVGID_4_)" d="M369.854,376.712c-0.735,4.864-5.273,8.205-10.131,7.47c-4.856-0.736-8.201-5.269-7.469-10.129
		c0.733-4.858,5.273-8.2,10.133-7.468C367.241,367.317,370.587,371.852,369.854,376.712"/>
	<path clip-path="url(#SVGID_4_)" d="M365.148,430.509c-0.738,4.864-5.275,8.204-10.134,7.47c-4.855-0.735-8.2-5.268-7.468-10.129
		c0.734-4.859,5.276-8.2,10.134-7.469C362.534,421.113,365.88,425.65,365.148,430.509"/>
</g>
</svg>
